<mxfile host="app.diagrams.net" modified="2024-03-24T00:12:32.588Z" agent="Mozilla/5.0 (Macintosh; Intel Mac OS X 10_15_7) AppleWebKit/537.36 (KHTML, like Gecko) Chrome/123.0.0.0 Safari/537.36" version="24.0.7" etag="Kf27p_f3HOPMkQ31IfoN" type="github">
  <diagram name="Page-1" id="hDC_pvtcxiJRQY1bdzBG">
    <mxGraphModel>
      <root>
        <mxCell id="0" />
        <mxCell id="1" parent="0" />
      </root>
    </mxGraphModel>
  </diagram>
</mxfile>
